<svg width="40" height="40" viewBox="0 0 40 40" fill="none" xmlns="http://www.w3.org/2000/svg">
<path d="M24.4443 20.0003C24.4531 19.4154 24.342 18.8349 24.1179 18.2946C23.8937 17.7543 23.5613 17.2656 23.141 16.8587C22.7341 16.4384 22.2454 16.1059 21.7051 15.8818C21.1648 15.6576 20.5843 15.5465 19.9993 15.5553C19.4144 15.5465 18.8339 15.6576 18.2936 15.8818C17.7533 16.1059 17.2646 16.4384 16.8577 16.8587C16.4374 17.2656 16.105 17.7543 15.8808 18.2946C15.6567 18.8349 15.5456 19.4154 15.5543 20.0003C15.5543 21.227 15.9877 22.2753 16.8577 23.142C17.7243 24.0103 18.7727 24.4453 19.9993 24.4453C20.5843 24.4541 21.1648 24.343 21.7051 24.1189C22.2454 23.8947 22.7341 23.5623 23.141 23.142C24.0093 22.2753 24.4443 21.227 24.4443 20.0003ZM26.8393 20.0003C26.8393 21.8987 26.1727 23.5137 24.8427 24.8437C23.5127 26.1753 21.8977 26.8403 19.9993 26.8403C18.101 26.8403 16.486 26.1737 15.156 24.8437C13.8243 23.5137 13.1593 21.8987 13.1593 20.0003C13.1593 18.102 13.826 16.487 15.156 15.157C16.486 13.8253 18.101 13.1603 19.9993 13.1603C21.8977 13.1603 23.5127 13.827 24.8427 15.157C26.1743 16.487 26.8393 18.102 26.8393 20.0003ZM28.7143 12.8837C28.7143 13.322 28.5577 13.6987 28.246 14.0103C28.1 14.1616 27.9246 14.2814 27.7305 14.3622C27.5365 14.443 27.3279 14.4832 27.1177 14.4803C26.9075 14.4832 26.6989 14.443 26.5048 14.3622C26.3108 14.2814 26.1353 14.1616 25.9893 14.0103C25.8384 13.8642 25.7189 13.6887 25.6384 13.4946C25.5578 13.3006 25.5179 13.0921 25.521 12.882C25.521 12.442 25.676 12.0653 25.9877 11.7537C26.134 11.6025 26.3098 11.4829 26.5041 11.4023C26.6985 11.3218 26.9073 11.282 27.1177 11.2853C27.5577 11.2853 27.9343 11.442 28.246 11.7537C28.397 11.8998 28.5164 12.0753 28.597 12.2693C28.6775 12.4634 28.7175 12.6736 28.7143 12.8837ZM19.9993 9.06199L18.671 9.05199C18.0605 9.04606 17.4499 9.04606 16.8393 9.05199C16.4227 9.05866 15.8643 9.07533 15.1643 9.10533C14.4643 9.13366 13.8677 9.19199 13.376 9.27866C12.9532 9.3469 12.5375 9.45402 12.1343 9.59866C11.556 9.83199 11.046 10.1653 10.6077 10.607C10.1677 11.0453 9.83102 11.5553 9.59935 12.1337C9.47268 12.4703 9.36602 12.8837 9.27935 13.3753C9.18267 13.967 9.12477 14.5644 9.10602 15.1637C9.07602 15.8637 9.05935 16.422 9.05268 16.8387C9.04768 17.2553 9.04768 17.8653 9.05268 18.672L9.06268 19.9987L9.05268 21.327C9.04768 22.132 9.04768 22.742 9.05268 23.1587C9.05935 23.5753 9.07602 24.1337 9.10602 24.8337C9.13435 25.5337 9.19268 26.1303 9.27935 26.622C9.36602 27.1137 9.47268 27.527 9.59935 27.8637C9.83268 28.442 10.166 28.952 10.6077 29.3903C11.046 29.8303 11.556 30.167 12.1343 30.3987C12.471 30.5253 12.8843 30.632 13.376 30.7187C13.8677 30.8053 14.4643 30.8637 15.1643 30.892C15.8643 30.922 16.4227 30.9387 16.8393 30.9453C17.256 30.9503 17.866 30.9503 18.6727 30.9453L19.9993 30.937L21.3277 30.9453C22.1327 30.9503 22.7427 30.9503 23.1593 30.9453C23.576 30.9387 24.1343 30.922 24.8343 30.892C25.5343 30.8637 26.131 30.8053 26.6227 30.7187C27.1143 30.632 27.5277 30.5253 27.8643 30.3987C28.4427 30.1653 28.9527 29.832 29.391 29.3903C29.831 28.952 30.1677 28.442 30.3993 27.8637C30.526 27.527 30.6327 27.1137 30.7193 26.622C30.806 26.1303 30.8643 25.5337 30.8927 24.8337C30.9227 24.1337 30.9393 23.5753 30.946 23.1587C30.951 22.742 30.951 22.132 30.946 21.3253L30.936 20.0003L30.946 18.672C30.951 17.867 30.951 17.257 30.946 16.8403C30.9355 16.2818 30.9177 15.7234 30.8927 15.1653C30.8739 14.5661 30.816 13.9687 30.7193 13.377C30.6511 12.9541 30.544 12.5385 30.3993 12.1353C30.1712 11.5628 29.828 11.0432 29.391 10.6087C28.9565 10.1717 28.4369 9.82847 27.8643 9.60033C27.4612 9.45569 27.0455 9.34857 26.6227 9.28033C26.031 9.18364 25.4336 9.12574 24.8343 9.10699C24.1343 9.07699 23.576 9.06033 23.1593 9.05366C22.7427 9.04866 22.1327 9.04866 21.326 9.05366L19.9993 9.06366V9.06199ZM33.3327 20.0003C33.3327 22.6503 33.3043 24.4853 33.246 25.5037C33.1293 27.912 32.4127 29.7753 31.0927 31.0937C29.7743 32.4137 27.9093 33.1303 25.5027 33.247C24.4843 33.3053 22.6493 33.3337 19.9993 33.3337C17.3493 33.3337 15.5143 33.3053 14.496 33.247C12.0877 33.1303 10.2243 32.4137 8.90602 31.0937C7.58602 29.7753 6.86935 27.9103 6.75268 25.5037C6.69435 24.4853 6.66602 22.6503 6.66602 20.0003C6.66602 17.3503 6.69435 15.5153 6.75268 14.497C6.86935 12.0887 7.58602 10.2253 8.90602 8.90699C10.2243 7.58699 12.0893 6.87033 14.496 6.75366C15.5143 6.69533 17.3493 6.66699 19.9993 6.66699C22.6493 6.66699 24.4843 6.69533 25.5027 6.75366C27.911 6.87033 29.7743 7.58699 31.0927 8.90699C32.4127 10.2253 33.1293 12.0903 33.246 14.497C33.3043 15.5153 33.3327 17.3503 33.3327 20.0003Z" fill="black"/>
</svg>
