<svg width="40" height="40" viewBox="0 0 40 40" fill="none" xmlns="http://www.w3.org/2000/svg">
<path d="M8.63435 6.66699H31.3577C32.446 6.66699 33.3327 7.53033 33.3327 8.58866V31.4087C33.3327 32.472 32.446 33.3337 31.3593 33.3337H8.63435C7.54935 33.3337 6.66602 32.472 6.66602 31.4087V8.58866C6.66602 7.52866 7.54935 6.66699 8.63435 6.66699ZM14.891 12.6237C14.891 12.0154 14.6494 11.4321 14.2193 11.002C13.7892 10.5719 13.2059 10.3303 12.5977 10.3303C11.9895 10.3303 11.4061 10.5719 10.9761 11.002C10.546 11.4321 10.3043 12.0154 10.3043 12.6237C10.3061 13.2316 10.5485 13.8142 10.9786 14.2439C11.4086 14.6737 11.9914 14.9157 12.5993 14.917C13.8627 14.917 14.891 13.887 14.891 12.6237ZM14.5827 16.6637H10.6193V29.3887H14.5827V16.6637ZM17.0577 16.6637H17.0627V29.3853H21.0143V23.0903C21.0143 21.432 21.331 19.8237 23.3893 19.8237C25.4177 19.8237 25.4443 21.7237 25.4443 23.1987V29.3887H29.3977V22.4087C29.3977 18.982 28.6577 16.347 24.6527 16.347C22.721 16.347 21.431 17.402 20.9027 18.402H20.851V16.6653L17.0627 16.6637V16.662L17.0577 16.6637Z" fill="white"/>
</svg>
