<svg width="24" height="24" viewBox="0 0 24 24" fill="none" xmlns="http://www.w3.org/2000/svg">
<g clip-path="url(#clip0_221_235)">
<path d="M1.83203 21.8936L3.26381 16.6783C2.37869 15.1474 1.91402 13.4106 1.91671 11.6431C1.91671 6.0898 6.44574 1.5752 12.0083 1.5752C13.334 1.5752 14.6467 1.83585 15.8714 2.34228C17.0961 2.84871 18.2089 3.59098 19.1461 4.52669C20.0832 5.4624 20.8265 6.57322 21.3335 7.79569C21.8404 9.01816 22.101 10.3283 22.1004 11.6513C22.098 17.2047 17.5704 21.7193 12.0083 21.7193H12.0045C10.3195 21.7192 8.66145 21.2979 7.18171 20.4937L1.83203 21.8936ZM7.42945 18.6712L7.73622 18.8523C9.02879 19.616 10.5033 20.019 12.0054 20.019H12.0083C16.6317 20.019 20.3943 16.2645 20.3962 11.6504C20.3967 10.5511 20.1803 9.4624 19.7592 8.44658C19.3381 7.43076 18.7206 6.50767 17.942 5.73003C17.1634 4.95238 16.239 4.3354 15.2214 3.91433C14.2039 3.49326 13.1132 3.27634 12.0117 3.27596C7.38493 3.27596 3.62235 7.02952 3.62042 11.6436C3.6183 13.2192 4.06283 14.7632 4.90268 16.0974L5.10251 16.4137L4.25719 19.5018L7.42945 18.6712Z" fill="black"/>
<path d="M1.83203 21.8936L3.26381 16.6783C2.37869 15.1474 1.91402 13.4106 1.91671 11.6431C1.91671 6.0898 6.44574 1.5752 12.0083 1.5752C13.334 1.5752 14.6467 1.83585 15.8714 2.34228C17.0961 2.84871 18.2089 3.59098 19.1461 4.52669C20.0832 5.4624 20.8265 6.57322 21.3335 7.79569C21.8404 9.01816 22.101 10.3283 22.1004 11.6513C22.098 17.2047 17.5704 21.7193 12.0083 21.7193H12.0045C10.3195 21.7192 8.66145 21.2979 7.18171 20.4937L1.83203 21.8936ZM7.42945 18.6712L7.73622 18.8523C9.02879 19.616 10.5033 20.019 12.0054 20.019H12.0083C16.6317 20.019 20.3943 16.2645 20.3962 11.6504C20.3967 10.5511 20.1803 9.4624 19.7592 8.44658C19.3381 7.43076 18.7206 6.50767 17.942 5.73003C17.1634 4.95238 16.239 4.3354 15.2214 3.91433C14.2039 3.49326 13.1132 3.27634 12.0117 3.27596C7.38493 3.27596 3.62235 7.02952 3.62042 11.6436C3.6183 13.2192 4.06283 14.7632 4.90268 16.0974L5.10251 16.4137L4.25719 19.5018L7.42945 18.6712Z" fill="black"/>
<path d="M9.1748 7.30664H9.17676C9.27778 7.31063 9.30933 7.31614 9.34082 7.33398C9.36969 7.35038 9.43817 7.40234 9.52441 7.58984C9.64169 7.84555 9.83028 8.29845 10 8.70996C10.1632 9.10578 10.3186 9.48674 10.3604 9.56836C10.3861 9.6186 10.3975 9.65407 10.4004 9.68066C10.4027 9.70175 10.4005 9.72609 10.3828 9.76074C10.2854 9.9518 10.2593 10.0217 10.1543 10.1416C9.99892 10.319 9.87539 10.4803 9.76367 10.5898L9.7627 10.5908C9.70393 10.6488 9.58372 10.7621 9.52441 10.9189C9.45366 11.1061 9.48194 11.3031 9.5957 11.4971C9.75808 11.774 10.3227 12.6737 11.1631 13.4082C12.2356 14.3458 13.1642 14.6502 13.4053 14.7686C13.5603 14.8446 13.7303 14.9012 13.9082 14.8799C14.0983 14.8571 14.2394 14.7529 14.3477 14.6318C14.5032 14.4579 15.0344 13.8468 15.2285 13.5615C15.259 13.5167 15.2795 13.4994 15.2871 13.4941C15.2914 13.4912 15.2922 13.4912 15.293 13.4912C15.2977 13.4907 15.3138 13.4901 15.3486 13.498C15.3847 13.5062 15.4284 13.5204 15.4893 13.542C15.5951 13.5795 15.9719 13.7531 16.3779 13.9453C16.7741 14.1328 17.1729 14.3268 17.3076 14.3926C17.4595 14.4667 17.5514 14.506 17.6328 14.5498C17.6623 14.5657 17.6808 14.578 17.6924 14.5859C17.6934 14.5934 17.6963 14.6028 17.6973 14.6143C17.7018 14.6684 17.7019 14.7468 17.6934 14.8457C17.6762 15.0435 17.6252 15.3052 17.5215 15.5898C17.4441 15.8019 17.1843 16.0609 16.8301 16.2852C16.481 16.5062 16.1278 16.6394 15.9482 16.6562C15.6797 16.6814 15.4841 16.73 15.0625 16.6748C14.6323 16.6185 13.969 16.4509 12.8359 16.0127C10.185 14.9875 8.50432 12.3168 8.34375 12.1064C8.27923 12.0221 8.01574 11.6783 7.76855 11.2012C7.51912 10.7197 7.2998 10.1277 7.2998 9.54395C7.29996 8.3664 7.9194 7.80211 8.16699 7.53711L8.1709 7.53223C8.23367 7.46204 8.31135 7.40432 8.39844 7.36426C8.48515 7.32443 8.57962 7.30244 8.67578 7.2998C8.85734 7.2998 9.0293 7.29999 9.1748 7.30664Z" stroke="black" stroke-width="0.6"/>
</g>
<defs>
<clipPath id="clip0_221_235">
<rect width="24" height="24" fill="white"/>
</clipPath>
</defs>
</svg>
