<svg width="24" height="24" viewBox="0 0 24 24" fill="none" xmlns="http://www.w3.org/2000/svg">
<g clip-path="url(#clip0_221_249)">
<path d="M1.83203 21.8936L3.26381 16.6783C2.37869 15.1474 1.91402 13.4106 1.91671 11.6431C1.91671 6.0898 6.44574 1.5752 12.0083 1.5752C13.334 1.5752 14.6467 1.83585 15.8714 2.34228C17.0961 2.84871 18.2089 3.59098 19.1461 4.52669C20.0832 5.4624 20.8265 6.57322 21.3335 7.79569C21.8404 9.01816 22.101 10.3283 22.1004 11.6513C22.098 17.2047 17.5704 21.7193 12.0083 21.7193H12.0045C10.3195 21.7192 8.66145 21.2979 7.18171 20.4937L1.83203 21.8936ZM7.42945 18.6712L7.73622 18.8523C9.02879 19.616 10.5033 20.019 12.0054 20.019H12.0083C16.6317 20.019 20.3943 16.2645 20.3962 11.6504C20.3967 10.5511 20.1803 9.4624 19.7592 8.44658C19.3381 7.43076 18.7206 6.50767 17.942 5.73003C17.1634 4.95238 16.239 4.3354 15.2214 3.91433C14.2039 3.49326 13.1132 3.27634 12.0117 3.27596C7.38493 3.27596 3.62235 7.02952 3.62042 11.6436C3.6183 13.2192 4.06283 14.7632 4.90268 16.0974L5.10251 16.4137L4.25719 19.5018L7.42945 18.6712Z" fill="black"/>
<path d="M1.83203 21.8936L3.26381 16.6783C2.37869 15.1474 1.91402 13.4106 1.91671 11.6431C1.91671 6.0898 6.44574 1.5752 12.0083 1.5752C13.334 1.5752 14.6467 1.83585 15.8714 2.34228C17.0961 2.84871 18.2089 3.59098 19.1461 4.52669C20.0832 5.4624 20.8265 6.57322 21.3335 7.79569C21.8404 9.01816 22.101 10.3283 22.1004 11.6513C22.098 17.2047 17.5704 21.7193 12.0083 21.7193H12.0045C10.3195 21.7192 8.66145 21.2979 7.18171 20.4937L1.83203 21.8936ZM7.42945 18.6712L7.73622 18.8523C9.02879 19.616 10.5033 20.019 12.0054 20.019H12.0083C16.6317 20.019 20.3943 16.2645 20.3962 11.6504C20.3967 10.5511 20.1803 9.4624 19.7592 8.44658C19.3381 7.43076 18.7206 6.50767 17.942 5.73003C17.1634 4.95238 16.239 4.3354 15.2214 3.91433C14.2039 3.49326 13.1132 3.27634 12.0117 3.27596C7.38493 3.27596 3.62235 7.02952 3.62042 11.6436C3.6183 13.2192 4.06283 14.7632 4.90268 16.0974L5.10251 16.4137L4.25719 19.5018L7.42945 18.6712Z" fill="url(#paint0_linear_221_249)"/>
<path d="M9.48699 7.43406C9.29779 7.0149 9.09989 7.00669 8.91941 6.99945C8.77425 6.99269 8.60441 6.99317 8.43554 6.99317C8.30781 6.99657 8.18217 7.0263 8.06651 7.08048C7.95085 7.13466 7.84766 7.21213 7.76344 7.30802C7.53215 7.56009 6.88086 8.16854 6.88086 9.40669C6.88086 10.6448 7.78425 11.8415 7.91054 12.0095C8.03683 12.1776 9.65489 14.7992 12.217 15.808C14.346 16.6463 14.7815 16.4797 15.2426 16.4357C15.7038 16.3918 16.7344 15.8268 16.9449 15.2391C17.1554 14.6514 17.1549 14.1483 17.0901 14.043C17.0252 13.9377 16.8588 13.8749 16.6062 13.7494C16.3536 13.6238 15.1144 13.0144 14.8831 12.9309C14.6518 12.8473 14.4839 12.8048 14.3155 13.0569C14.1471 13.309 13.6647 13.8749 13.5171 14.043C13.3696 14.211 13.223 14.2323 12.9709 14.1062C12.7188 13.9802 11.9063 13.7146 10.9434 12.8575C10.1934 12.1901 9.68538 11.3668 9.54021 11.1147C9.39505 10.8626 9.52473 10.7284 9.65102 10.6014C9.76425 10.4884 9.90312 10.3073 10.0294 10.1605C10.1557 10.0137 10.1973 9.90891 10.2815 9.74086C10.3657 9.57281 10.3236 9.42601 10.2602 9.29997C10.1968 9.17394 9.71102 7.93144 9.48699 7.43406Z" fill="white"/>
</g>
<defs>
<linearGradient id="paint0_linear_221_249" x1="11.9662" y1="21.8936" x2="11.9662" y2="1.5752" gradientUnits="userSpaceOnUse">
<stop stop-color="#F9F9F9"/>
<stop offset="1" stop-color="white"/>
</linearGradient>
<clipPath id="clip0_221_249">
<rect width="24" height="24" fill="white"/>
</clipPath>
</defs>
</svg>
