<svg width="40" height="40" viewBox="0 0 40 40" fill="none" xmlns="http://www.w3.org/2000/svg">
<path d="M16.646 23.5968C16.5843 23.6134 10.0076 25.4868 9.60595 25.4868C8.68262 25.4384 8.48262 24.6284 8.39595 23.8368C8.30498 23.0128 8.31113 22.181 8.41428 21.3584C8.53095 20.3651 8.74929 18.9734 9.88595 19.0318C10.1776 19.0318 13.9643 20.4018 16.736 21.3818C17.776 21.7401 17.8676 23.2751 16.646 23.5984V23.5968ZM20.166 17.5701C20.2743 19.5918 18.616 20.1368 17.296 18.3268L10.8343 9.43844C10.7426 9.08844 10.8526 8.78178 11.156 8.51678C12.106 7.64511 17.1993 6.41178 18.5426 6.71344C18.9976 6.81344 19.2776 7.03678 19.381 7.38011C19.461 7.81844 20.081 16.2368 20.1643 17.5701H20.166ZM20.081 26.2901C20.081 26.5334 20.0926 32.4501 19.9776 32.7184C19.8376 33.0351 19.551 33.2318 19.1076 33.3118C18.4943 33.4018 17.461 33.2118 16.0076 32.7451C14.6693 32.3168 12.561 31.6084 13.011 30.4968C13.181 30.1318 16.1343 27.1734 17.711 25.5451C18.4393 24.7401 20.1276 25.2534 20.081 26.2901ZM31.0343 20.0568C30.6943 20.2534 24.2993 21.5501 23.856 21.6768L23.8726 21.6434C22.7726 21.8934 21.7226 20.6668 22.456 19.8134C22.6826 19.6184 26.4626 14.9251 26.8826 14.6801C27.1993 14.4918 27.5693 14.4801 27.9943 14.6501C29.1126 15.1168 31.3443 17.9884 31.4843 19.1268C31.4776 19.2801 31.5576 19.7451 31.0343 20.0568ZM31.6476 26.9734C31.4843 28.0634 28.9426 30.8568 27.7693 31.2584C27.351 31.3968 26.986 31.3651 26.6943 31.1534C26.3893 30.9684 22.9376 26.0151 22.7493 25.7401C22.086 24.8834 23.1626 23.6351 24.3043 23.9834C24.3043 23.9834 31.021 25.8718 31.2776 26.0668C31.5943 26.2851 31.7143 26.5868 31.6476 26.9734Z" fill="white"/>
</svg>
